<svg version="1.1" id="Layer_1" xmlns="http://www.w3.org/2000/svg" xmlns:xlink="http://www.w3.org/1999/xlink" x="0px" y="0px"
	 width="100%" viewBox="0 0 180 180" enable-background="new 0 0 180 180" xml:space="preserve">
<path fill="#247B86" opacity="1.000000" stroke="none" 
	d="
M1.000002,172.000000 
	C1.000000,118.312439 1.000000,64.624878 1.329853,10.648143 
	C4.439804,7.239314 7.219902,4.119658 10.000000,1.000000 
	C63.687561,1.000000 117.375122,1.000000 171.342194,1.326603 
	C174.747787,4.435472 177.873886,7.217738 181.000000,10.000002 
	C181.000000,63.687561 181.000000,117.375122 180.670151,171.351837 
	C177.560196,174.760651 174.780106,177.880325 172.000000,181.000000 
	C118.312439,181.000000 64.624878,181.000000 10.648183,180.670151 
	C7.239369,177.560196 4.119687,174.780090 1.000002,172.000000 
M21.052889,140.597595 
	C21.372026,140.759460 21.691162,140.921326 22.925549,141.295807 
	C40.838531,141.295807 58.751518,141.295807 76.748474,141.295807 
	C76.748474,137.183182 76.748474,133.758469 76.748474,129.820709 
	C62.272861,129.820709 48.037033,129.820709 33.126385,129.820709 
	C33.126385,99.948036 33.126385,70.585899 33.126385,41.166767 
	C28.958771,41.166767 25.477098,41.166767 21.466879,41.122879 
	C21.342905,41.412262 21.218929,41.701641 20.933865,42.917358 
	C20.987562,75.279915 21.041258,107.642464 21.052889,140.597595 
M105.136803,140.550690 
	C105.423912,140.727661 105.711021,140.904648 106.914116,141.298355 
	C124.813751,141.298355 142.713394,141.298355 160.612335,141.298355 
	C160.612335,137.117981 160.612335,133.573380 160.612335,129.640640 
	C146.301849,129.640640 132.375519,129.640640 117.783195,129.640640 
	C117.783195,100.172142 117.783195,71.096733 117.859993,41.513588 
	C117.569321,41.397491 117.278648,41.281391 116.082359,41.027859 
	C112.724854,41.073856 109.367355,41.119858 105.501427,41.131565 
	C105.404121,41.420750 105.306824,41.709934 105.090820,42.929852 
	C105.130386,75.283691 105.169952,107.637535 105.136803,140.550690 
z"/>
<path fill="#000000" opacity="1.000000" stroke="none" 
	d="
M181.000000,9.508953 
	C177.873886,7.217738 174.747787,4.435472 171.810852,1.326603 
	C174.917358,1.000000 177.834702,1.000000 181.000000,1.000000 
	C181.000000,3.670005 181.000000,6.343954 181.000000,9.508953 
z"/>
<path fill="#000000" opacity="1.000000" stroke="none" 
	d="
M9.508952,1.000000 
	C7.219902,4.119658 4.439804,7.239314 1.329853,10.179485 
	C1.000000,7.082645 1.000000,4.165290 1.000000,1.000000 
	C3.670005,1.000000 6.343954,1.000000 9.508952,1.000000 
z"/>
<path fill="#000000" opacity="1.000000" stroke="none" 
	d="
M1.000002,172.491058 
	C4.119687,174.780090 7.239369,177.560196 10.179525,180.670151 
	C7.082646,181.000000 4.165292,181.000000 1.000000,181.000000 
	C1.000000,178.330002 1.000000,175.656052 1.000002,172.491058 
z"/>
<path fill="#000000" opacity="1.000000" stroke="none" 
	d="
M172.491058,181.000000 
	C174.780106,177.880325 177.560196,174.760651 180.670151,171.820496 
	C181.000000,174.917358 181.000000,177.834702 181.000000,181.000000 
	C178.330002,181.000000 175.656052,181.000000 172.491058,181.000000 
z"/>
<path fill="#FFFFAA" opacity="1.000000" stroke="none" 
	d="
M117.783195,42.021320 
	C117.783195,71.096733 117.783195,100.172142 117.783195,129.640640 
	C132.375519,129.640640 146.301849,129.640640 160.612335,129.640640 
	C160.612335,133.573380 160.612335,137.117981 160.612335,141.298355 
	C142.713394,141.298355 124.813751,141.298355 106.354523,140.988159 
	C105.627182,140.425751 105.432045,140.196884 105.209518,139.991379 
	C105.169952,107.637535 105.130386,75.283691 105.302246,42.344498 
	C105.703484,41.581806 105.868881,41.384045 106.009850,41.165855 
	C109.367355,41.119858 112.724854,41.073856 116.644516,41.260120 
	C117.362358,41.708466 117.554535,41.884777 117.783195,42.021320 
z"/>
<path fill="#FFFFAA" opacity="1.000000" stroke="none" 
	d="
M21.995424,41.166767 
	C25.477098,41.166767 28.958771,41.166767 33.126385,41.166767 
	C33.126385,70.585899 33.126385,99.948036 33.126385,129.820709 
	C48.037033,129.820709 62.272861,129.820709 76.748474,129.820709 
	C76.748474,133.758469 76.748474,137.183182 76.748474,141.295807 
	C58.751518,141.295807 40.838531,141.295807 22.333195,140.995209 
	C21.545250,140.446289 21.329954,140.216415 21.094955,140.005020 
	C21.041258,107.642464 20.987562,75.279915 21.177437,42.331474 
	C21.628733,41.568779 21.820206,41.375839 21.995424,41.166767 
z"/>
<path fill="#F6F9A8" opacity="1.000000" stroke="none" 
	d="
M21.731152,41.144821 
	C21.820206,41.375839 21.628733,41.568779 21.257980,41.868309 
	C21.218929,41.701641 21.342905,41.412262 21.731152,41.144821 
z"/>
<path fill="#E6F0A6" opacity="1.000000" stroke="none" 
	d="
M105.755638,41.148712 
	C105.868881,41.384045 105.703484,41.581806 105.361588,41.879128 
	C105.306824,41.709934 105.404121,41.420750 105.755638,41.148712 
z"/>
<path fill="#DBE9A4" opacity="1.000000" stroke="none" 
	d="
M117.821594,41.767456 
	C117.554535,41.884777 117.362358,41.708466 117.097321,41.328838 
	C117.278648,41.281391 117.569321,41.397491 117.821594,41.767456 
z"/>
<path fill="#F6F9A8" opacity="1.000000" stroke="none" 
	d="
M21.073921,140.301300 
	C21.329954,140.216415 21.545250,140.446289 21.875568,140.888901 
	C21.691162,140.921326 21.372026,140.759460 21.073921,140.301300 
z"/>
<path fill="#E6F0A6" opacity="1.000000" stroke="none" 
	d="
M105.173157,140.271027 
	C105.432045,140.196884 105.627182,140.425751 105.896530,140.879791 
	C105.711021,140.904648 105.423912,140.727661 105.173157,140.271027 
z"/>
</svg>